<svg xmlns="http://www.w3.org/2000/svg" viewBox="0 0 1024 1024" role="img" aria-label="Teak Software Studio logo">
  <title>Teak Software Studio Logo</title>
  <path d="M 589 353 L 585 353 L 577 367 L 544 462 L 541 477 L 520 545 L 495 655 L 495 663 L 483 726 L 472 824 L 467 951 L 470 952 L 546 952 L 540 902 L 536 836 L 536 738 L 541 683 L 540 675 L 552 591 L 551 586 L 564 514 L 563 511 L 587 389 L 586 385 L 591 360 Z M 433 77 L 385 89 L 351 101 L 304 123 L 268 145 L 236 169 L 212 190 L 182 221 L 149 264 L 127 300 L 106 344 L 94 377 L 82 424 L 75 467 L 76 475 L 73 515 L 76 559 L 75 566 L 79 592 L 91 642 L 111 696 L 141 751 L 181 804 L 231 852 L 272 882 L 298 898 L 353 924 L 381 934 L 426 945 L 426 898 L 423 880 L 424 875 L 420 856 L 408 821 L 396 799 L 382 781 L 364 763 L 351 753 L 324 739 L 293 730 L 270 727 L 238 719 L 222 713 L 204 703 L 189 692 L 171 673 L 156 650 L 148 631 L 144 617 L 141 593 L 144 570 L 153 554 L 160 547 L 172 540 L 184 537 L 202 537 L 221 541 L 265 563 L 301 586 L 348 609 L 370 616 L 393 620 L 412 619 L 424 615 L 433 607 L 436 601 L 436 572 L 430 554 L 416 529 L 395 506 L 379 495 L 360 486 L 289 471 L 273 465 L 242 447 L 215 420 L 204 405 L 193 384 L 184 352 L 183 320 L 191 290 L 199 279 L 207 272 L 216 267 L 231 264 L 233 262 L 231 249 L 232 238 L 239 222 L 249 211 L 262 203 L 285 197 L 307 197 L 343 206 L 362 215 L 382 228 L 415 258 L 447 297 L 455 305 L 459 305 L 461 302 L 464 256 L 471 216 L 470 213 L 482 173 L 495 148 L 517 128 L 533 121 L 553 120 L 569 123 L 589 134 L 603 147 L 610 156 L 623 182 L 630 210 L 633 242 L 635 246 L 643 244 L 668 226 L 697 214 L 720 212 L 733 214 L 745 220 L 756 231 L 762 243 L 764 258 L 762 276 L 745 308 L 703 361 L 685 391 L 674 425 L 674 437 L 676 442 L 682 446 L 690 446 L 703 440 L 748 400 L 783 377 L 806 370 L 818 369 L 831 371 L 847 379 L 854 386 L 860 396 L 864 409 L 864 422 L 855 451 L 882 460 L 896 473 L 903 490 L 904 502 L 901 514 L 902 516 L 896 529 L 886 542 L 863 562 L 837 576 L 802 588 L 754 598 L 734 600 L 699 610 L 673 623 L 659 634 L 642 652 L 634 664 L 627 683 L 627 696 L 633 703 L 658 703 L 726 680 L 756 674 L 777 674 L 800 682 L 811 692 L 820 710 L 821 726 L 816 743 L 808 757 L 791 774 L 777 784 L 756 795 L 718 808 L 653 822 L 631 832 L 621 839 L 610 850 L 602 862 L 592 888 L 588 910 L 587 931 L 588 945 L 594 946 L 636 936 L 667 924 L 671 924 L 724 899 L 744 887 L 777 864 L 804 842 L 841 805 L 874 762 L 889 739 L 910 700 L 924 666 L 936 628 L 946 579 L 949 545 L 950 511 L 947 475 L 948 468 L 945 446 L 935 399 L 922 358 L 908 325 L 882 277 L 854 237 L 831 210 L 796 176 L 760 148 L 723 124 L 673 100 L 639 88 L 595 77 L 532 70 L 495 70 Z" fill="#111111" fill-rule="evenodd"/>
</svg>
