<svg xmlns="http://www.w3.org/2000/svg" viewBox="55 130 1555 125" role="img" aria-label="Teak Software Studio wordmark">
  <title>Teak Software Studio Wordmark</title>
  <path fill="#111111" d="M114 245L94.20 245L94.20 158L63.60 158L63.60 140L144.60 140L144.60 158L114 158L114 245ZM178.50 247.10L178.50 247.10Q167.40 247.10 158.92 242.38Q150.45 237.65 145.72 229.03Q141 220.40 141 208.70L141 208.70L141 206.90Q141 195.20 145.65 186.57Q150.30 177.95 158.70 173.23Q167.10 168.50 178.20 168.50L178.20 168.50Q189.15 168.50 197.25 173.38Q205.35 178.25 209.85 186.88Q214.35 195.50 214.35 206.90L214.35 206.90L214.35 213.35L160.20 213.35Q160.50 221 165.90 225.80Q171.30 230.60 179.10 230.60L179.10 230.60Q187.05 230.60 190.80 227.15Q194.55 223.70 196.50 219.50L196.50 219.50L211.95 227.60Q209.85 231.50 205.88 236.07Q201.90 240.65 195.30 243.88Q188.70 247.10 178.50 247.10ZM160.35 199.25L160.35 199.25L195.15 199.25Q194.55 192.80 189.97 188.90Q185.40 185 178.05 185L178.05 185Q170.40 185 165.90 188.90Q161.40 192.80 160.35 199.25ZM254.25 247.10L254.25 247.10Q246.30 247.10 240.00 244.32Q233.70 241.55 230.02 236.22Q226.35 230.90 226.35 223.25L226.35 223.25Q226.35 211.70 234.45 205.85Q242.55 200 255.15 200L255.15 200L275.55 200L275.55 195.80Q275.55 190.55 272.25 187.18Q268.95 183.80 261.75 183.80L261.75 183.80Q254.70 183.80 251.25 187.03Q247.80 190.25 246.75 195.35L246.75 195.35L229.35 189.50Q231.15 183.80 235.12 179.07Q239.10 174.35 245.77 171.43Q252.45 168.50 262.05 168.50L262.05 168.50Q276.75 168.50 285.30 175.85Q293.85 183.20 293.85 197.15L293.85 197.15L293.85 224.90Q293.85 229.40 298.05 229.40L298.05 229.40L304.05 229.40L304.05 245L291.45 245Q285.90 245 282.30 242.30Q278.70 239.60 278.70 235.10L278.70 235.10L278.70 234.95L275.85 234.95Q275.25 236.75 273.15 239.68Q271.05 242.60 266.55 244.85Q262.05 247.10 254.25 247.10ZM257.55 231.80L257.55 231.80Q265.50 231.80 270.52 227.38Q275.55 222.95 275.55 215.60L275.55 215.60L275.55 214.10L256.50 214.10Q251.25 214.10 248.25 216.35Q245.25 218.60 245.25 222.65L245.25 222.65Q245.25 226.70 248.40 229.25Q251.55 231.80 257.55 231.80ZM336.75 245L317.85 245L317.85 140L336.75 140L336.75 198.05L339.45 198.05L364.05 170.60L388.65 170.60L354.30 206.60L389.85 245L365.55 245L339.45 215.45L336.75 215.45L336.75 245ZM476.40 247.10L476.40 247.10Q464.25 247.10 454.95 242.75Q445.65 238.40 440.40 230.30Q435.15 222.20 435.15 210.80L435.15 210.80L435.15 206.60L454.65 206.60L454.65 210.80Q454.65 220.25 460.50 224.97Q466.35 229.70 476.40 229.70L476.40 229.70Q486.60 229.70 491.62 225.65Q496.65 221.60 496.65 215.30L496.65 215.30Q496.65 208.70 491.17 205.78Q485.70 202.85 475.50 200.60L475.50 200.60L472.05 199.85Q461.25 197.45 453.52 193.78Q445.80 190.10 441.67 184.10Q437.55 178.10 437.55 168.50L437.55 168.50Q437.55 154.10 447.67 146Q457.80 137.90 474.60 137.90L474.60 137.90Q485.85 137.90 494.62 141.73Q503.40 145.55 508.42 153.13Q513.45 160.70 513.45 172.10L513.45 172.10L513.45 176.60L493.95 176.60L493.95 172.10Q493.95 163.10 488.77 159.20Q483.60 155.30 474.60 155.30L474.60 155.30Q465.60 155.30 461.32 158.68Q457.05 162.05 457.05 167.90L457.05 167.90Q457.05 173.75 461.55 176.90Q466.05 180.05 475.50 182.15L475.50 182.15L478.95 182.90Q490.20 185.30 498.52 189.05Q506.85 192.80 511.50 198.95Q516.15 205.10 516.15 214.70L516.15 214.70Q516.15 224.30 511.27 231.57Q506.40 238.85 497.47 242.97Q488.55 247.10 476.40 247.10ZM566.85 247.10L566.85 247.10Q555.75 247.10 546.90 242.60Q538.05 238.10 532.95 229.55Q527.85 221 527.85 209L527.85 209L527.85 206.60Q527.85 194.60 532.95 186.05Q538.05 177.50 546.90 173Q555.75 168.50 566.85 168.50L566.85 168.50Q577.95 168.50 586.80 173Q595.65 177.50 600.75 186.05Q605.85 194.60 605.85 206.60L605.85 206.60L605.85 209Q605.85 221 600.75 229.55Q595.65 238.10 586.80 242.60Q577.95 247.10 566.85 247.10ZM566.85 230.30L566.85 230.30Q575.55 230.30 581.25 224.68Q586.95 219.05 586.95 208.55L586.95 208.55L586.95 207.05Q586.95 196.55 581.32 190.93Q575.70 185.30 566.85 185.30L566.85 185.30Q558.15 185.30 552.45 190.93Q546.75 196.55 546.75 207.05L546.75 207.05L546.75 208.55Q546.75 219.05 552.45 224.68Q558.15 230.30 566.85 230.30ZM652.05 245L633.15 245L633.15 186.20L614.25 186.20L614.25 170.60L633.15 170.60L633.15 156.80Q633.15 149.15 637.72 144.57Q642.30 140 649.65 140L649.65 140L669.15 140L669.15 155.60L656.25 155.60Q652.05 155.60 652.05 160.10L652.05 160.10L652.05 170.60L671.55 170.60L671.55 186.20L652.05 186.20L652.05 245ZM734.25 245L713.25 245Q705.90 245 701.32 240.43Q696.75 235.85 696.75 228.20L696.75 228.20L696.75 186.20L678.15 186.20L678.15 170.60L696.75 170.60L696.75 147.50L715.65 147.50L715.65 170.60L736.05 170.60L736.05 186.20L715.65 186.20L715.65 224.90Q715.65 229.40 719.85 229.40L719.85 229.40L734.25 229.40L734.25 245ZM790.50 245L759.15 245L748.65 170.60L767.40 170.60L774.00 232.25L776.70 232.25L786.30 170.60L816.60 170.60L826.20 232.25L828.90 232.25L835.50 170.60L854.25 170.60L843.75 245L812.40 245L802.80 183.35L800.10 183.35L790.50 245ZM893.85 247.10L893.85 247.10Q885.90 247.10 879.60 244.32Q873.30 241.55 869.62 236.22Q865.95 230.90 865.95 223.25L865.95 223.25Q865.95 211.70 874.05 205.85Q882.15 200 894.75 200L894.75 200L915.15 200L915.15 195.80Q915.15 190.55 911.85 187.18Q908.55 183.80 901.35 183.80L901.35 183.80Q894.30 183.80 890.85 187.03Q887.40 190.25 886.35 195.35L886.35 195.35L868.95 189.50Q870.75 183.80 874.72 179.07Q878.70 174.35 885.37 171.43Q892.05 168.50 901.65 168.50L901.65 168.50Q916.35 168.50 924.90 175.85Q933.45 183.20 933.45 197.15L933.45 197.15L933.45 224.90Q933.45 229.40 937.65 229.40L937.65 229.40L943.65 229.40L943.65 245L931.05 245Q925.50 245 921.90 242.30Q918.30 239.60 918.30 235.10L918.30 235.10L918.30 234.95L915.45 234.95Q914.85 236.75 912.75 239.68Q910.65 242.60 906.15 244.85Q901.65 247.10 893.85 247.10ZM897.15 231.80L897.15 231.80Q905.10 231.80 910.12 227.38Q915.15 222.95 915.15 215.60L915.15 215.60L915.15 214.10L896.10 214.10Q890.85 214.10 887.85 216.35Q884.85 218.60 884.85 222.65L884.85 222.65Q884.85 226.70 888.00 229.25Q891.15 231.80 897.15 231.80ZM976.35 245L957.45 245L957.45 170.60L976.05 170.60L976.05 179L978.75 179Q980.40 174.50 984.22 172.40Q988.05 170.30 993.15 170.30L993.15 170.30L1002.15 170.30L1002.15 187.10L992.85 187.10Q985.65 187.10 981.00 190.93Q976.35 194.75 976.35 202.70L976.35 202.70L976.35 245ZM1048.05 247.10L1048.05 247.10Q1036.95 247.10 1028.47 242.38Q1020.00 237.65 1015.27 229.03Q1010.55 220.40 1010.55 208.70L1010.55 208.70L1010.55 206.90Q1010.55 195.20 1015.20 186.57Q1019.85 177.95 1028.25 173.23Q1036.65 168.50 1047.75 168.50L1047.75 168.50Q1058.70 168.50 1066.80 173.38Q1074.90 178.25 1079.40 186.88Q1083.90 195.50 1083.90 206.90L1083.90 206.90L1083.90 213.35L1029.75 213.35Q1030.05 221 1035.45 225.80Q1040.85 230.60 1048.65 230.60L1048.65 230.60Q1056.60 230.60 1060.35 227.15Q1064.10 223.70 1066.05 219.50L1066.05 219.50L1081.50 227.60Q1079.40 231.50 1075.42 236.07Q1071.45 240.65 1064.85 243.88Q1058.25 247.10 1048.05 247.10ZM1029.90 199.25L1029.90 199.25L1064.70 199.25Q1064.10 192.80 1059.52 188.90Q1054.95 185 1047.60 185L1047.60 185Q1039.95 185 1035.45 188.90Q1030.95 192.80 1029.90 199.25ZM1174.65 247.10L1174.65 247.10Q1162.50 247.10 1153.20 242.75Q1143.90 238.40 1138.65 230.30Q1133.40 222.20 1133.40 210.80L1133.40 210.80L1133.40 206.60L1152.90 206.60L1152.90 210.80Q1152.90 220.25 1158.75 224.97Q1164.60 229.70 1174.65 229.70L1174.65 229.70Q1184.85 229.70 1189.87 225.65Q1194.90 221.60 1194.90 215.30L1194.90 215.30Q1194.90 208.70 1189.42 205.78Q1183.95 202.85 1173.75 200.60L1173.75 200.60L1170.30 199.85Q1159.50 197.45 1151.77 193.78Q1144.05 190.10 1139.92 184.10Q1135.80 178.10 1135.80 168.50L1135.80 168.50Q1135.80 154.10 1145.92 146Q1156.05 137.90 1172.85 137.90L1172.85 137.90Q1184.10 137.90 1192.87 141.73Q1201.65 145.55 1206.67 153.13Q1211.70 160.70 1211.70 172.10L1211.70 172.10L1211.70 176.60L1192.20 176.60L1192.20 172.10Q1192.20 163.10 1187.02 159.20Q1181.85 155.30 1172.85 155.30L1172.85 155.30Q1163.85 155.30 1159.57 158.68Q1155.30 162.05 1155.30 167.90L1155.30 167.90Q1155.30 173.75 1159.80 176.90Q1164.30 180.05 1173.75 182.15L1173.75 182.15L1177.20 182.90Q1188.45 185.30 1196.77 189.05Q1205.10 192.80 1209.75 198.95Q1214.40 205.10 1214.40 214.70L1214.40 214.70Q1214.40 224.30 1209.52 231.57Q1204.65 238.85 1195.72 242.97Q1186.80 247.10 1174.65 247.10ZM1279.20 245L1258.20 245Q1250.85 245 1246.27 240.43Q1241.70 235.85 1241.70 228.20L1241.70 228.20L1241.70 186.20L1223.10 186.20L1223.10 170.60L1241.70 170.60L1241.70 147.50L1260.60 147.50L1260.60 170.60L1281.00 170.60L1281.00 186.20L1260.60 186.20L1260.60 224.90Q1260.60 229.40 1264.80 229.40L1264.80 229.40L1279.20 229.40L1279.20 245ZM1326.45 246.20L1326.45 246.20Q1317.75 246.20 1311.22 242.22Q1304.70 238.25 1301.10 231.20Q1297.50 224.15 1297.50 215L1297.50 215L1297.50 170.60L1316.40 170.60L1316.40 213.50Q1316.40 221.90 1320.52 226.10Q1324.65 230.30 1332.30 230.30L1332.30 230.30Q1341 230.30 1345.80 224.53Q1350.60 218.75 1350.60 208.40L1350.60 208.40L1350.60 170.60L1369.50 170.60L1369.50 245L1350.90 245L1350.90 235.25L1348.20 235.25Q1346.40 239 1341.45 242.60Q1336.50 246.20 1326.45 246.20ZM1420.50 247.10L1420.50 247.10Q1411.65 247.10 1403.92 242.68Q1396.20 238.25 1391.55 229.70Q1386.90 221.15 1386.90 209L1386.90 209L1386.90 206.60Q1386.90 194.45 1391.55 185.90Q1396.20 177.35 1403.85 172.93Q1411.50 168.50 1420.50 168.50L1420.50 168.50Q1430.70 168.50 1435.95 171.88Q1441.20 175.25 1443.60 179.15L1443.60 179.15L1446.30 179.15L1446.30 140L1465.20 140L1465.20 245L1446.60 245L1446.60 236L1443.90 236Q1441.35 240.20 1436.03 243.65Q1430.70 247.10 1420.50 247.10ZM1426.20 230.60L1426.20 230.60Q1434.90 230.60 1440.75 224.97Q1446.60 219.35 1446.60 208.55L1446.60 208.55L1446.60 207.05Q1446.60 196.25 1440.83 190.63Q1435.05 185 1426.20 185L1426.20 185Q1417.50 185 1411.65 190.63Q1405.80 196.25 1405.80 207.05L1405.80 207.05L1405.80 208.55Q1405.80 219.35 1411.65 224.97Q1417.50 230.60 1426.20 230.60ZM1505.10 245L1486.20 245L1486.20 170.60L1505.10 170.60L1505.10 245ZM1495.65 161.90L1495.65 161.90Q1490.55 161.90 1487.03 158.60Q1483.50 155.30 1483.50 149.90L1483.50 149.90Q1483.50 144.50 1487.03 141.20Q1490.55 137.90 1495.65 137.90L1495.65 137.90Q1500.90 137.90 1504.35 141.20Q1507.80 144.50 1507.80 149.90L1507.80 149.90Q1507.80 155.30 1504.35 158.60Q1500.90 161.90 1495.65 161.90ZM1561.50 247.10L1561.50 247.10Q1550.40 247.10 1541.55 242.60Q1532.70 238.10 1527.60 229.55Q1522.50 221 1522.50 209L1522.50 209L1522.50 206.60Q1522.50 194.60 1527.60 186.05Q1532.70 177.50 1541.55 173Q1550.40 168.50 1561.50 168.50L1561.50 168.50Q1572.60 168.50 1581.45 173Q1590.30 177.50 1595.40 186.05Q1600.50 194.60 1600.50 206.60L1600.50 206.60L1600.50 209Q1600.50 221 1595.40 229.55Q1590.30 238.10 1581.45 242.60Q1572.60 247.10 1561.50 247.10ZM1561.50 230.30L1561.50 230.30Q1570.20 230.30 1575.90 224.68Q1581.60 219.05 1581.60 208.55L1581.60 208.55L1581.60 207.05Q1581.60 196.55 1575.98 190.93Q1570.35 185.30 1561.50 185.30L1561.50 185.30Q1552.80 185.30 1547.10 190.93Q1541.40 196.55 1541.40 207.05L1541.40 207.05L1541.40 208.55Q1541.40 219.05 1547.10 224.68Q1552.80 230.30 1561.50 230.30Z"></path>
</svg>
